<svg id="svg" xmlns="http://www.w3.org/2000/svg" width="100%" height="100%" viewBox="0 0 172.09 36.84">
                    <defs>
                    <style>
                        .cls-1 {
                        fill: none;
                        }
                        .cls-2 {
                        fill: black;
                        }
                        .cls-3 {
                        fill: white;
                        }
                    </style>
                    </defs>
                    <title>ATLAS Wordmark</title>
                    <line class="cls-1" x1="0" y1="36" x2="172.1" y2="36"/>   
                    <rect class="cls-1" width="41.57" height="36.84"/>
                    <rect class="cls-1" x="99.18" width="41.57" height="36.84"/>
                    <polygon class="cls-2" points="37.52 0.64 67.98 0.64 67.98 9.45 57.84 9.45 57.84 36 47.5 36 47.5 9.45 37.52 9.45 37.52 0.64"/>
                    <polygon class="cls-2" points="70.84 0.64 81.18 0.64 81.18 27.15 96.31 27.15 96.31 36 70.84 36 70.84 0.64"/>
                    <path class="cls-2" d="M140.54,24.73h10.58c.35,2.81,2.53,4.15,5.94,4.15,2,0,4.5-.79,4.5-2.92s-2.38-2.67-6.73-3.76c-5.93-1.48-13.1-3.51-13.1-11C141.73,3.07,148.35,0,156.32,0c7.31,0,14,3.07,14.19,10.78H160.27c-.29-1.93-1.68-3.16-4.5-3.16-2.27,0-3.86,1-3.86,2.47,0,2.08,3,2.37,8.31,3.66,5.94,1.43,11.87,3.76,11.87,11.27,0,7.72-6.87,11.82-15.23,11.82-9.2,0-16.17-4-16.32-12.11"/>    
                    <g class="cls-2" id="a-first" data-name="a-first"><path d="M37.11,36H4.46L0,28.21,16.32.64h8.93L41.57,28.21ZM13.54,25.67H28L20.78,13.43Z"/><rect class="cls-1" width="41.57" height="36.84"/></g>    
                    <g class="cls-2" id="a-second" data-name="a-second" transform="translate(99.18 0)"><path d="M20.78,13.91,30.31,36H41.57L28.11,4.84a8,8,0,0,0-14.67,0L0,36H11.25Z"/><rect class="cls-1" width="41.57" height="36.84"/></g>    
                </svg>